<?xml version="1.0" standalone="no"?>
<!DOCTYPE svg PUBLIC "-//W3C//DTD SVG 20010904//EN"
 "http://www.w3.org/TR/2001/REC-SVG-20010904/DTD/svg10.dtd">
<svg version="1.0" xmlns="http://www.w3.org/2000/svg"
 width="228.000000pt" height="189.000000pt" viewBox="0 0 228.000000 189.000000"
 preserveAspectRatio="xMidYMid meet">

<g transform="translate(0.000000,189.000000) scale(0.100000,-0.100000)"
fill="#000000" stroke="none">
<path d="M1113 1705 c-18 -28 -22 -43 -17 -79 6 -42 4 -48 -29 -81 -27 -27
-43 -35 -71 -35 -44 0 -76 29 -76 69 0 25 -5 30 -47 44 -26 9 -49 15 -50 14
-1 -2 23 -40 54 -85 l56 -82 51 7 c77 12 113 8 136 -12 19 -17 21 -17 38 -2
20 18 112 22 162 8 23 -7 30 0 82 78 32 47 56 86 54 88 -1 2 -20 -3 -41 -10
-30 -11 -41 -21 -50 -47 -25 -74 -102 -90 -159 -33 -27 26 -35 74 -17 102 6 9
0 26 -18 52 -14 21 -28 38 -31 38 -3 1 -15 -15 -27 -34z"/>
<path d="M800 1491 c-19 -11 -46 -31 -60 -46 -22 -23 -25 -24 -31 -8 -5 15 -9
13 -26 -14 -15 -25 -22 -30 -31 -21 -9 9 -12 4 -12 -23 0 -19 5 -40 12 -47 9
-9 7 -17 -10 -35 -12 -13 -22 -34 -22 -46 0 -14 -23 -49 -56 -87 -31 -36 -55
-67 -52 -69 3 -3 24 1 46 9 23 9 42 12 41 8 -1 -16 -18 -46 -18 -34 -1 10 -5
10 -21 0 -27 -17 -25 -29 8 -60 28 -26 72 -43 72 -27 0 5 14 9 31 9 17 0 28 4
24 10 -3 6 -2 10 2 10 5 0 18 6 28 14 18 13 17 14 -11 29 l-29 16 30 1 c41 1
51 9 59 50 3 19 17 58 30 87 21 44 22 52 9 55 -12 2 -11 8 7 31 18 22 19 27 5
27 -21 0 -9 22 44 79 23 24 41 50 41 58 0 24 -29 25 -67 3 l-38 -22 33 31 c38
36 19 42 -38 12z m-92 -271 c-9 -13 -23 -20 -45 -20 -29 0 -32 2 -22 18 7 11
25 19 45 20 32 3 34 1 22 -18z"/>
<path d="M1451 1474 l34 -37 -40 27 c-46 30 -60 32 -69 10 -4 -11 7 -31 33
-59 52 -56 67 -85 46 -85 -14 0 -13 -5 5 -27 17 -22 19 -29 8 -31 -12 -2 -10
-13 10 -54 13 -28 27 -69 30 -90 5 -39 7 -41 67 -51 17 -2 16 -5 -10 -19 l-30
-16 27 -13 c15 -6 25 -16 22 -20 -3 -5 8 -9 25 -9 16 0 31 -4 33 -9 6 -17 72
14 88 41 14 25 13 28 -5 42 -13 9 -22 11 -26 4 -4 -5 -8 1 -11 15 -4 23 -3 24
21 17 14 -4 34 -11 44 -15 32 -13 18 16 -38 74 -35 37 -53 64 -50 73 4 9 -6
29 -21 47 -20 24 -24 35 -15 44 6 6 11 27 11 47 0 27 -3 32 -11 20 -8 -11 -12
-12 -16 -3 -2 7 -13 23 -23 35 -18 22 -19 22 -20 3 0 -16 -6 -13 -37 17 -63
61 -139 81 -82 22z m187 -254 c11 -18 10 -20 -16 -20 -16 0 -37 9 -47 20 -18
20 -17 20 16 20 23 0 38 -6 47 -20z"/>
<path d="M965 1450 c-18 -8 -18 -9 5 -10 21 -1 19 -4 -14 -16 -53 -19 -56 -24
-10 -17 37 5 38 5 19 -11 -19 -15 -18 -15 13 -5 18 6 54 9 80 6 l47 -5 -25 21
c-24 20 -24 20 -2 14 37 -9 14 12 -26 23 -43 12 -60 12 -87 0z"/>
<path d="M1223 1449 c-41 -12 -51 -27 -15 -22 24 3 25 3 6 -6 -40 -18 -32 -26
24 -26 32 0 68 -4 82 -8 l25 -8 -25 16 c-25 16 -24 16 20 10 53 -7 49 0 -11
19 -35 11 -39 14 -19 16 23 1 23 2 5 10 -25 11 -52 11 -92 -1z"/>
<path d="M1049 1346 c-16 -8 -32 -10 -40 -5 -19 12 -42 11 -34 -1 3 -5 -1 -23
-10 -39 -27 -53 -22 -62 38 -57 55 4 77 -5 77 -33 0 -13 -7 -16 -35 -13 -19 2
-40 10 -46 18 -18 21 -46 17 -53 -8 -10 -40 -7 -48 37 -76 41 -25 42 -28 27
-45 -20 -20 -15 -76 8 -94 29 -23 111 14 112 50 0 11 -10 27 -22 36 -28 24
-16 41 30 41 52 0 68 -12 47 -34 -9 -9 -21 -16 -26 -16 -19 0 -7 -46 17 -64
25 -18 87 -26 100 -14 12 13 15 76 4 83 -8 5 -7 11 2 23 12 14 10 14 -9 3 -38
-20 -26 -3 17 24 46 29 55 44 46 80 -7 28 -36 34 -55 11 -6 -8 -27 -16 -46
-18 -28 -3 -35 0 -35 13 0 28 22 37 78 33 47 -4 52 -2 52 16 0 12 -7 32 -16
45 -9 13 -13 29 -9 35 8 13 -18 13 -31 0 -7 -7 -20 -6 -40 5 -37 19 -150 20
-185 1z"/>
<path d="M884 1315 c-10 -8 -15 -15 -11 -15 4 0 -5 -19 -21 -42 -23 -34 -52
-98 -52 -114 0 -1 10 0 21 3 19 5 21 3 14 -26 -4 -17 -3 -50 1 -74 l7 -42 17
52 c9 29 23 60 31 69 12 15 12 16 -10 9 -21 -6 -22 -5 -16 17 4 12 14 37 23
53 14 28 14 29 -2 16 -9 -8 -19 -11 -22 -8 -8 8 15 48 49 85 28 28 29 32 11
32 -11 0 -29 -7 -40 -15z"/>
<path d="M1367 1298 c17 -18 39 -49 48 -67 l18 -35 -26 17 -26 17 20 -46 c22
-49 19 -65 -7 -43 -15 13 -15 11 1 -20 9 -19 23 -53 30 -75 l12 -41 8 38 c4
21 5 54 2 74 -5 31 -4 35 13 30 11 -3 20 -1 20 4 0 19 -31 84 -56 116 -16 21
-20 33 -12 33 20 1 -34 29 -56 30 -17 0 -16 -4 11 -32z"/>
<path d="M897 1068 c-9 -29 -19 -73 -22 -98 -6 -42 -6 -44 9 -25 15 19 15 18
16 -21 0 -50 21 -124 45 -155 17 -24 17 -24 11 16 -5 35 7 110 28 170 5 13 -4
8 -24 -15 l-32 -35 6 59 c6 52 5 58 -10 52 -15 -6 -16 0 -11 49 3 30 4 55 3
55 -2 0 -10 -24 -19 -52z"/>
<path d="M1368 1066 c4 -48 2 -55 -11 -50 -14 5 -15 -2 -10 -52 l6 -58 -32 35
c-18 18 -30 27 -27 19 30 -89 38 -128 32 -167 -3 -23 -4 -43 -1 -43 14 0 48
92 52 142 6 55 15 73 26 46 12 -30 6 43 -8 96 -22 84 -33 97 -27 32z"/>
<path d="M520 1043 c0 -24 23 -57 37 -52 5 2 -1 19 -14 38 -18 27 -23 30 -23
14z"/>
<path d="M762 981 c-17 -38 -32 -77 -32 -87 -1 -18 -1 -18 -14 -1 -19 25 -27
21 -16 -9 6 -15 8 -41 4 -59 -8 -44 18 -100 57 -124 39 -24 46 -21 26 11 -19
30 -30 95 -18 102 5 3 12 0 14 -6 3 -7 6 3 6 22 l1 35 19 -42 c11 -23 29 -46
41 -53 21 -11 21 -11 5 27 -9 21 -20 75 -25 120 -5 45 -15 93 -22 107 -13 25
-13 24 -46 -43z"/>
<path d="M1737 1024 c-11 -14 -16 -28 -12 -32 8 -8 35 26 35 45 0 18 -2 16
-23 -13z"/>
<path d="M1469 1014 c-6 -16 -15 -65 -19 -110 -5 -45 -16 -96 -25 -113 -16
-32 -16 -32 5 -21 12 6 30 30 41 53 l19 42 0 -39 c0 -38 1 -39 16 -20 14 18
15 16 9 -25 -3 -24 -12 -56 -21 -72 -17 -34 -7 -37 30 -8 39 31 55 70 55 132
-1 31 2 62 7 69 4 7 -2 4 -14 -6 -22 -19 -22 -19 -22 3 0 18 -49 124 -65 139
-2 3 -10 -8 -16 -24z"/>
<path d="M565 970 c-8 -14 13 -50 30 -50 7 0 15 -5 17 -12 5 -14 45 -21 53 -8
3 5 -2 21 -11 35 -12 18 -19 22 -25 14 -5 -8 -11 -6 -20 10 -15 22 -34 27 -44
11z"/>
<path d="M1081 965 c-37 -21 -43 -39 -24 -74 10 -17 22 -31 26 -31 4 0 18 -12
31 -27 l23 -27 41 35 c23 19 42 42 42 52 0 11 5 15 11 11 7 -4 9 2 7 17 -1 13
-13 28 -25 34 -13 5 -23 13 -23 17 0 13 -83 7 -109 -7z"/>
<path d="M1676 964 c-3 -9 -13 -14 -21 -10 -15 6 -35 -21 -35 -48 0 -21 28
-16 68 12 36 26 43 62 13 62 -10 0 -22 -7 -25 -16z"/>
<path d="M991 853 c-1 -50 15 -96 31 -91 6 2 29 -14 50 -36 35 -36 38 -38 32
-16 -3 14 -19 43 -35 64 -16 22 -29 49 -29 59 0 16 -3 17 -15 7 -12 -10 -16
-6 -24 22 l-9 33 -1 -42z"/>
<path d="M1280 867 c0 -14 -4 -29 -10 -32 -5 -3 -10 -1 -10 4 0 6 -4 11 -10
11 -5 0 -10 -8 -10 -18 0 -11 -13 -39 -30 -63 -42 -62 -40 -94 3 -41 17 23 38
39 44 37 7 -2 18 5 23 16 12 22 16 96 6 106 -3 4 -6 -5 -6 -20z"/>
<path d="M890 801 c0 -17 19 -78 32 -104 5 -11 7 -21 4 -24 -2 -3 -41 -9 -85
-14 -59 -7 -108 -5 -187 6 -59 8 -131 15 -160 15 -52 0 -52 0 -83 -50 -17 -28
-31 -51 -31 -53 0 -1 65 -2 145 -2 101 0 148 -4 156 -12 10 -10 -1 -33 -54
-110 -36 -54 -79 -113 -95 -132 l-28 -34 -34 16 c-18 10 -34 16 -35 15 -1 -2
-9 -16 -18 -32 -14 -28 -13 -31 9 -48 41 -33 68 -15 163 105 161 206 166 212
201 223 18 6 43 23 55 38 l22 27 17 -25 c9 -14 23 -26 31 -26 20 0 57 38 50
50 -4 6 -1 10 6 10 7 0 6 8 -5 25 -9 13 -16 28 -16 33 0 5 -13 33 -30 63 -16
30 -30 48 -30 40z"/>
<path d="M1361 764 c-14 -27 -26 -55 -27 -62 -1 -7 -9 -24 -18 -37 -23 -35
-20 -64 9 -77 21 -9 28 -8 45 7 25 23 25 41 1 61 -18 16 -18 17 1 70 27 74 19
99 -11 38z"/>
<path d="M925 539 c-22 -10 -48 -19 -57 -19 -11 0 -18 -8 -18 -21 0 -16 4 -19
21 -14 21 7 21 5 18 -74 l-4 -80 40 6 c22 3 41 7 43 8 1 1 1 49 0 107 l-3 104
-40 -17z"/>
<path d="M1065 543 l-40 -13 3 -98 3 -97 40 3 39 4 0 73 c0 52 4 76 15 85 23
19 38 -32 31 -107 -4 -35 -4 -63 -1 -63 3 0 21 10 40 23 31 20 35 28 41 83 8
75 0 102 -33 115 -20 7 -32 5 -58 -11 -32 -20 -34 -20 -37 -2 -3 17 -6 18 -43
5z"/>
<path d="M1485 541 c-21 -15 -32 -32 -37 -58 -20 -115 44 -183 131 -138 23 12
41 33 41 49 0 2 -11 1 -24 -1 -44 -9 -66 13 -66 62 0 44 15 60 27 29 4 -11 13
-13 37 -8 42 8 50 18 37 42 -12 22 -24 27 -81 37 -26 4 -43 0 -65 -14z"/>
<path d="M1320 530 c-47 -18 -73 -58 -31 -47 20 5 21 1 21 -74 l0 -78 33 5
c17 3 37 7 42 9 15 4 7 205 -8 204 -7 -1 -32 -9 -57 -19z"/>
<path d="M1714 506 c-35 -34 -44 -50 -44 -78 0 -42 31 -74 83 -89 30 -8 43 -6
76 10 22 12 47 31 55 43 23 32 20 94 -4 118 -12 12 -18 25 -15 30 4 6 -17 10
-51 10 -54 0 -59 -2 -100 -44z m87 -15 c18 -14 24 -29 24 -59 0 -53 -9 -60
-43 -35 -27 20 -40 67 -28 99 7 19 19 18 47 -5z"/>
</g>
</svg>
